<mxfile host="app.diagrams.net" modified="2023-08-01T11:17:46.049Z" agent="Mozilla/5.0 (Macintosh; Intel Mac OS X 10_15_7) AppleWebKit/537.36 (KHTML, like Gecko) Chrome/115.0.0.0 Safari/537.36" etag="YI-9rNRzW9S1X0E-2cLD" version="21.6.6" type="github">
  <diagram name="第 1 页" id="L3xyPryuT6cQ3fmTiVPL">
    <mxGraphModel dx="3074" dy="2461" grid="1" gridSize="10" guides="1" tooltips="1" connect="1" arrows="1" fold="1" page="1" pageScale="1" pageWidth="850" pageHeight="1100" math="0" shadow="0">
      <root>
        <mxCell id="0" />
        <mxCell id="1" parent="0" />
        <mxCell id="vz7TybBeLEqPIu0Ode82-165" value="" style="rounded=0;whiteSpace=wrap;html=1;dashed=1;dashPattern=8 8;fontFamily=Helvetica;fontSize=12;fillColor=#b1ddf0;strokeColor=#10739e;" vertex="1" parent="1">
          <mxGeometry x="-719" y="-1048" width="3990" height="970" as="geometry" />
        </mxCell>
        <mxCell id="vz7TybBeLEqPIu0Ode82-105" value="" style="rounded=0;whiteSpace=wrap;html=1;strokeColor=#23445d;fontFamily=Helvetica;fontSize=12;fillColor=#bac8d3;" vertex="1" parent="1">
          <mxGeometry x="2331" y="-898" width="830" height="770" as="geometry" />
        </mxCell>
        <mxCell id="yCfuCtmDYK_FV-YPYzmW-62" value="" style="rounded=0;whiteSpace=wrap;html=1;strokeColor=#b85450;fillColor=#f8cecc;" parent="1" vertex="1">
          <mxGeometry x="411" y="-898" width="780" height="770" as="geometry" />
        </mxCell>
        <mxCell id="yCfuCtmDYK_FV-YPYzmW-61" value="" style="rounded=0;whiteSpace=wrap;html=1;strokeColor=#0F8B8D;fontColor=#143642;fillColor=#FAE5C7;glass=0;shadow=0;" parent="1" vertex="1">
          <mxGeometry x="721" y="-898" width="1610" height="390" as="geometry" />
        </mxCell>
        <mxCell id="yCfuCtmDYK_FV-YPYzmW-57" value="" style="rounded=0;whiteSpace=wrap;html=1;dashed=1;opacity=80;fillColor=#dae8fc;strokeColor=#6c8ebf;fillStyle=auto;gradientColor=none;align=left;fontSize=16;strokeWidth=0;" parent="1" vertex="1">
          <mxGeometry x="-659" y="-898" width="1070" height="770" as="geometry" />
        </mxCell>
        <mxCell id="1xCJAlItFcg6lwi7AEPt-4" style="edgeStyle=orthogonalEdgeStyle;rounded=0;sketch=1;hachureGap=4;jiggle=2;curveFitting=1;orthogonalLoop=1;jettySize=auto;html=1;exitX=1;exitY=0.5;exitDx=0;exitDy=0;fontFamily=Comic Sans MS;fontSize=16;" parent="1" source="yCfuCtmDYK_FV-YPYzmW-40" target="1xCJAlItFcg6lwi7AEPt-3" edge="1">
          <mxGeometry relative="1" as="geometry" />
        </mxCell>
        <mxCell id="yCfuCtmDYK_FV-YPYzmW-42" value="不存在已备案资格" style="edgeLabel;html=1;align=center;verticalAlign=middle;resizable=0;points=[];fontSize=16;fontFamily=Comic Sans MS;" parent="1xCJAlItFcg6lwi7AEPt-4" vertex="1" connectable="0">
          <mxGeometry x="0.0735" y="-2" relative="1" as="geometry">
            <mxPoint x="-17" y="-2" as="offset" />
          </mxGeometry>
        </mxCell>
        <mxCell id="vz7TybBeLEqPIu0Ode82-3" value="" style="edgeStyle=orthogonalEdgeStyle;rounded=0;orthogonalLoop=1;jettySize=auto;html=1;dashed=1;sketch=1;curveFitting=1;jiggle=2;strokeColor=#FF0000;" edge="1" parent="1" source="1xCJAlItFcg6lwi7AEPt-2" target="vz7TybBeLEqPIu0Ode82-2">
          <mxGeometry relative="1" as="geometry">
            <Array as="points">
              <mxPoint x="-546" y="-650" />
              <mxPoint x="-546" y="-650" />
            </Array>
          </mxGeometry>
        </mxCell>
        <mxCell id="1xCJAlItFcg6lwi7AEPt-2" value="资格申请" style="rounded=0;whiteSpace=wrap;html=1;fontSize=18;sketch=1;curveFitting=1;jiggle=2;fontFamily=Comic Sans MS;" parent="1" vertex="1">
          <mxGeometry x="-616" y="-708" width="100" height="30" as="geometry" />
        </mxCell>
        <mxCell id="1xCJAlItFcg6lwi7AEPt-7" style="edgeStyle=orthogonalEdgeStyle;rounded=0;sketch=1;hachureGap=4;jiggle=2;curveFitting=1;orthogonalLoop=1;jettySize=auto;html=1;exitX=1;exitY=0.5;exitDx=0;exitDy=0;fontFamily=Comic Sans MS;fontSize=16;" parent="1" source="1xCJAlItFcg6lwi7AEPt-3" target="1xCJAlItFcg6lwi7AEPt-5" edge="1">
          <mxGeometry relative="1" as="geometry" />
        </mxCell>
        <mxCell id="vz7TybBeLEqPIu0Ode82-5" value="" style="edgeStyle=orthogonalEdgeStyle;rounded=0;orthogonalLoop=1;jettySize=auto;html=1;dashed=1;sketch=1;curveFitting=1;jiggle=2;strokeColor=#FF0000;" edge="1" parent="1" source="1xCJAlItFcg6lwi7AEPt-3" target="vz7TybBeLEqPIu0Ode82-4">
          <mxGeometry relative="1" as="geometry" />
        </mxCell>
        <mxCell id="1xCJAlItFcg6lwi7AEPt-3" value="填写申请表单" style="rounded=0;whiteSpace=wrap;html=1;sketch=1;hachureGap=4;jiggle=2;curveFitting=1;fontFamily=Comic Sans MS;fontSize=20;" parent="1" vertex="1">
          <mxGeometry x="-146" y="-708" width="130" height="30" as="geometry" />
        </mxCell>
        <mxCell id="1xCJAlItFcg6lwi7AEPt-9" style="edgeStyle=orthogonalEdgeStyle;rounded=0;sketch=1;hachureGap=4;jiggle=2;curveFitting=1;orthogonalLoop=1;jettySize=auto;html=1;exitX=1;exitY=0.5;exitDx=0;exitDy=0;entryX=0;entryY=0.5;entryDx=0;entryDy=0;fontFamily=Comic Sans MS;fontSize=16;" parent="1" source="1xCJAlItFcg6lwi7AEPt-5" target="1xCJAlItFcg6lwi7AEPt-8" edge="1">
          <mxGeometry relative="1" as="geometry" />
        </mxCell>
        <mxCell id="1xCJAlItFcg6lwi7AEPt-5" value="提交" style="rounded=0;whiteSpace=wrap;html=1;fontSize=18;sketch=1;curveFitting=1;jiggle=2;fontFamily=Comic Sans MS;" parent="1" vertex="1">
          <mxGeometry x="34" y="-708" width="80" height="30" as="geometry" />
        </mxCell>
        <mxCell id="vz7TybBeLEqPIu0Ode82-102" value="" style="edgeStyle=orthogonalEdgeStyle;rounded=0;orthogonalLoop=1;jettySize=auto;html=1;fontFamily=Helvetica;fontSize=12;fontColor=default;sketch=1;curveFitting=1;jiggle=2;dashed=1;strokeColor=#FF0000;" edge="1" parent="1" source="1xCJAlItFcg6lwi7AEPt-8" target="vz7TybBeLEqPIu0Ode82-101">
          <mxGeometry relative="1" as="geometry">
            <Array as="points">
              <mxPoint x="191" y="-752" />
              <mxPoint x="109" y="-752" />
            </Array>
          </mxGeometry>
        </mxCell>
        <mxCell id="1xCJAlItFcg6lwi7AEPt-8" value="发送接口" style="rounded=0;whiteSpace=wrap;html=1;fontSize=18;sketch=1;curveFitting=1;jiggle=2;fontFamily=Comic Sans MS;" parent="1" vertex="1">
          <mxGeometry x="174" y="-708" width="100" height="30" as="geometry" />
        </mxCell>
        <mxCell id="1xCJAlItFcg6lwi7AEPt-13" value="通过" style="edgeStyle=orthogonalEdgeStyle;rounded=0;sketch=1;hachureGap=4;jiggle=2;curveFitting=1;orthogonalLoop=1;jettySize=auto;html=1;entryX=0;entryY=0.5;entryDx=0;entryDy=0;fontFamily=Comic Sans MS;fontSize=16;" parent="1" source="1xCJAlItFcg6lwi7AEPt-10" target="1xCJAlItFcg6lwi7AEPt-12" edge="1">
          <mxGeometry relative="1" as="geometry" />
        </mxCell>
        <mxCell id="1xCJAlItFcg6lwi7AEPt-15" style="edgeStyle=orthogonalEdgeStyle;rounded=0;sketch=1;hachureGap=4;jiggle=2;curveFitting=1;orthogonalLoop=1;jettySize=auto;html=1;entryX=0.5;entryY=0;entryDx=0;entryDy=0;fontFamily=Comic Sans MS;fontSize=16;" parent="1" source="1xCJAlItFcg6lwi7AEPt-10" target="1xCJAlItFcg6lwi7AEPt-14" edge="1">
          <mxGeometry relative="1" as="geometry" />
        </mxCell>
        <mxCell id="yCfuCtmDYK_FV-YPYzmW-33" value="接口不通过" style="edgeLabel;html=1;align=center;verticalAlign=middle;resizable=0;points=[];fontSize=14;fontFamily=Comic Sans MS;" parent="1xCJAlItFcg6lwi7AEPt-15" vertex="1" connectable="0">
          <mxGeometry x="-0.2" y="3" relative="1" as="geometry">
            <mxPoint as="offset" />
          </mxGeometry>
        </mxCell>
        <mxCell id="vz7TybBeLEqPIu0Ode82-120" value="" style="edgeStyle=orthogonalEdgeStyle;rounded=0;orthogonalLoop=1;jettySize=auto;html=1;fontFamily=Helvetica;fontSize=12;fontColor=default;sketch=1;curveFitting=1;jiggle=2;dashed=1;strokeColor=#FF0000;" edge="1" parent="1" source="1xCJAlItFcg6lwi7AEPt-10" target="vz7TybBeLEqPIu0Ode82-119">
          <mxGeometry relative="1" as="geometry" />
        </mxCell>
        <mxCell id="1xCJAlItFcg6lwi7AEPt-10" value="判断核对报告&lt;br&gt;是否通过" style="html=1;whiteSpace=wrap;aspect=fixed;shape=isoRectangle;sketch=1;hachureGap=4;jiggle=2;curveFitting=1;fontFamily=Comic Sans MS;fontSize=14;" parent="1" vertex="1">
          <mxGeometry x="501.01" y="-738" width="150" height="90" as="geometry" />
        </mxCell>
        <mxCell id="1xCJAlItFcg6lwi7AEPt-22" style="edgeStyle=orthogonalEdgeStyle;rounded=0;sketch=1;hachureGap=4;jiggle=2;curveFitting=1;orthogonalLoop=1;jettySize=auto;html=1;exitX=1;exitY=0.5;exitDx=0;exitDy=0;entryX=0;entryY=0.5;entryDx=0;entryDy=0;fontFamily=Comic Sans MS;fontSize=16;" parent="1" source="1xCJAlItFcg6lwi7AEPt-12" target="1xCJAlItFcg6lwi7AEPt-19" edge="1">
          <mxGeometry relative="1" as="geometry" />
        </mxCell>
        <mxCell id="yCfuCtmDYK_FV-YPYzmW-25" style="edgeStyle=orthogonalEdgeStyle;rounded=0;sketch=1;hachureGap=4;jiggle=2;curveFitting=1;orthogonalLoop=1;jettySize=auto;html=1;exitX=0.5;exitY=0;exitDx=0;exitDy=0;entryX=0.5;entryY=0;entryDx=0;entryDy=0;fontFamily=Comic Sans MS;fontSize=16;" parent="1" target="1xCJAlItFcg6lwi7AEPt-20" edge="1">
          <mxGeometry relative="1" as="geometry">
            <mxPoint x="791" y="-708" as="sourcePoint" />
            <mxPoint x="1046" y="-708" as="targetPoint" />
            <Array as="points">
              <mxPoint x="791" y="-778" />
              <mxPoint x="1071" y="-778" />
            </Array>
          </mxGeometry>
        </mxCell>
        <mxCell id="yCfuCtmDYK_FV-YPYzmW-34" value="公租补贴资格" style="edgeLabel;html=1;align=center;verticalAlign=middle;resizable=0;points=[];fontSize=16;fontFamily=Comic Sans MS;" parent="yCfuCtmDYK_FV-YPYzmW-25" vertex="1" connectable="0">
          <mxGeometry x="0.009" y="1" relative="1" as="geometry">
            <mxPoint x="-62" y="1" as="offset" />
          </mxGeometry>
        </mxCell>
        <mxCell id="1xCJAlItFcg6lwi7AEPt-12" value="受理" style="rounded=0;whiteSpace=wrap;html=1;fontSize=18;sketch=1;curveFitting=1;jiggle=2;fontFamily=Comic Sans MS;" parent="1" vertex="1">
          <mxGeometry x="741" y="-708" width="100" height="30" as="geometry" />
        </mxCell>
        <mxCell id="yCfuCtmDYK_FV-YPYzmW-6" value="" style="edgeStyle=orthogonalEdgeStyle;rounded=0;sketch=1;hachureGap=4;jiggle=2;curveFitting=1;orthogonalLoop=1;jettySize=auto;html=1;fontFamily=Comic Sans MS;fontSize=16;" parent="1" source="1xCJAlItFcg6lwi7AEPt-14" target="yCfuCtmDYK_FV-YPYzmW-5" edge="1">
          <mxGeometry relative="1" as="geometry" />
        </mxCell>
        <mxCell id="1xCJAlItFcg6lwi7AEPt-14" value="进入锁定" style="rounded=0;whiteSpace=wrap;html=1;fontSize=18;sketch=1;curveFitting=1;jiggle=2;fontFamily=Comic Sans MS;" parent="1" vertex="1">
          <mxGeometry x="528.52" y="-578" width="94.99" height="40" as="geometry" />
        </mxCell>
        <mxCell id="vz7TybBeLEqPIu0Ode82-38" style="edgeStyle=orthogonalEdgeStyle;rounded=0;orthogonalLoop=1;jettySize=auto;html=1;exitX=0.5;exitY=1;exitDx=0;exitDy=0;fontFamily=Helvetica;fontSize=12;fontColor=default;sketch=1;curveFitting=1;jiggle=2;" edge="1" parent="1" source="1xCJAlItFcg6lwi7AEPt-19" target="vz7TybBeLEqPIu0Ode82-37">
          <mxGeometry relative="1" as="geometry" />
        </mxCell>
        <mxCell id="vz7TybBeLEqPIu0Ode82-123" style="edgeStyle=orthogonalEdgeStyle;rounded=0;orthogonalLoop=1;jettySize=auto;html=1;entryX=0;entryY=0.5;entryDx=0;entryDy=0;fontFamily=Helvetica;fontSize=12;fontColor=default;dashed=1;sketch=1;curveFitting=1;jiggle=2;strokeColor=#FF0000;" edge="1" parent="1" source="1xCJAlItFcg6lwi7AEPt-19" target="vz7TybBeLEqPIu0Ode82-122">
          <mxGeometry relative="1" as="geometry">
            <Array as="points">
              <mxPoint x="961" y="-849" />
            </Array>
          </mxGeometry>
        </mxCell>
        <mxCell id="1xCJAlItFcg6lwi7AEPt-19" value="一次公示" style="rounded=0;whiteSpace=wrap;html=1;fontSize=18;sketch=1;curveFitting=1;jiggle=2;fontFamily=Comic Sans MS;" parent="1" vertex="1">
          <mxGeometry x="881" y="-708" width="100" height="30" as="geometry" />
        </mxCell>
        <mxCell id="yCfuCtmDYK_FV-YPYzmW-23" style="edgeStyle=orthogonalEdgeStyle;rounded=0;hachureGap=4;orthogonalLoop=1;jettySize=auto;html=1;exitX=0.5;exitY=0;exitDx=0;exitDy=0;fontFamily=Comic Sans MS;fontSize=16;entryX=0.5;entryY=0;entryDx=0;entryDy=0;sketch=1;curveFitting=1;jiggle=2;" parent="1" edge="1">
          <mxGeometry relative="1" as="geometry">
            <mxPoint x="1215" y="-708" as="sourcePoint" />
            <mxPoint x="1746" y="-708" as="targetPoint" />
            <Array as="points">
              <mxPoint x="1215" y="-778" />
              <mxPoint x="1746" y="-778" />
            </Array>
          </mxGeometry>
        </mxCell>
        <mxCell id="yCfuCtmDYK_FV-YPYzmW-36" value="公租补贴资格" style="edgeLabel;html=1;align=center;verticalAlign=middle;resizable=0;points=[];fontSize=16;fontFamily=Comic Sans MS;" parent="yCfuCtmDYK_FV-YPYzmW-23" vertex="1" connectable="0">
          <mxGeometry x="-0.0333" y="2" relative="1" as="geometry">
            <mxPoint x="25" as="offset" />
          </mxGeometry>
        </mxCell>
        <mxCell id="vz7TybBeLEqPIu0Ode82-45" style="edgeStyle=orthogonalEdgeStyle;rounded=0;orthogonalLoop=1;jettySize=auto;html=1;entryX=0.521;entryY=0.124;entryDx=0;entryDy=0;entryPerimeter=0;fontFamily=Helvetica;fontSize=12;fontColor=default;sketch=1;curveFitting=1;jiggle=2;" edge="1" parent="1" source="1xCJAlItFcg6lwi7AEPt-20" target="vz7TybBeLEqPIu0Ode82-44">
          <mxGeometry relative="1" as="geometry">
            <Array as="points">
              <mxPoint x="1091" y="-638" />
              <mxPoint x="1140" y="-638" />
            </Array>
          </mxGeometry>
        </mxCell>
        <mxCell id="vz7TybBeLEqPIu0Ode82-125" style="edgeStyle=orthogonalEdgeStyle;rounded=0;orthogonalLoop=1;jettySize=auto;html=1;exitX=0.75;exitY=0;exitDx=0;exitDy=0;entryX=0;entryY=0.75;entryDx=0;entryDy=0;fontFamily=Helvetica;fontSize=12;fontColor=default;dashed=1;sketch=1;curveFitting=1;jiggle=2;strokeColor=#FF0000;" edge="1" parent="1" source="1xCJAlItFcg6lwi7AEPt-20" target="vz7TybBeLEqPIu0Ode82-122">
          <mxGeometry relative="1" as="geometry" />
        </mxCell>
        <mxCell id="1xCJAlItFcg6lwi7AEPt-20" value="街乡初审" style="rounded=0;whiteSpace=wrap;html=1;fontSize=18;sketch=1;curveFitting=1;jiggle=2;fontFamily=Comic Sans MS;" parent="1" vertex="1">
          <mxGeometry x="1021" y="-708" width="100" height="30" as="geometry" />
        </mxCell>
        <mxCell id="vz7TybBeLEqPIu0Ode82-49" value="" style="edgeStyle=orthogonalEdgeStyle;rounded=0;orthogonalLoop=1;jettySize=auto;html=1;fontFamily=Helvetica;fontSize=12;fontColor=default;sketch=1;curveFitting=1;jiggle=2;" edge="1" parent="1" source="1xCJAlItFcg6lwi7AEPt-21" target="vz7TybBeLEqPIu0Ode82-48">
          <mxGeometry relative="1" as="geometry" />
        </mxCell>
        <mxCell id="vz7TybBeLEqPIu0Ode82-140" style="edgeStyle=orthogonalEdgeStyle;rounded=0;orthogonalLoop=1;jettySize=auto;html=1;entryX=0.287;entryY=1.027;entryDx=0;entryDy=0;entryPerimeter=0;fontFamily=Helvetica;fontSize=12;fontColor=default;sketch=1;curveFitting=1;jiggle=2;strokeColor=#FF0000;dashed=1;" edge="1" parent="1" source="1xCJAlItFcg6lwi7AEPt-21" target="vz7TybBeLEqPIu0Ode82-128">
          <mxGeometry relative="1" as="geometry">
            <Array as="points">
              <mxPoint x="1241" y="-748" />
              <mxPoint x="1834" y="-748" />
            </Array>
          </mxGeometry>
        </mxCell>
        <mxCell id="1xCJAlItFcg6lwi7AEPt-21" value="街道批次上报" style="rounded=0;whiteSpace=wrap;html=1;fontSize=18;sketch=1;curveFitting=1;jiggle=2;fontFamily=Comic Sans MS;" parent="1" vertex="1">
          <mxGeometry x="1161" y="-708" width="160" height="30" as="geometry" />
        </mxCell>
        <mxCell id="vz7TybBeLEqPIu0Ode82-60" style="edgeStyle=orthogonalEdgeStyle;rounded=0;orthogonalLoop=1;jettySize=auto;html=1;exitX=0.75;exitY=1;exitDx=0;exitDy=0;entryX=0.496;entryY=0.012;entryDx=0;entryDy=0;entryPerimeter=0;fontFamily=Helvetica;fontSize=12;fontColor=default;sketch=1;curveFitting=1;jiggle=2;" edge="1" parent="1" source="1xCJAlItFcg6lwi7AEPt-23" target="vz7TybBeLEqPIu0Ode82-59">
          <mxGeometry relative="1" as="geometry">
            <Array as="points">
              <mxPoint x="1617" y="-638" />
              <mxPoint x="1654" y="-638" />
            </Array>
          </mxGeometry>
        </mxCell>
        <mxCell id="vz7TybBeLEqPIu0Ode82-126" style="edgeStyle=orthogonalEdgeStyle;rounded=0;orthogonalLoop=1;jettySize=auto;html=1;entryX=1;entryY=0.5;entryDx=0;entryDy=0;fontFamily=Helvetica;fontSize=12;fontColor=default;sketch=1;curveFitting=1;jiggle=2;dashed=1;strokeColor=#FF0000;" edge="1" parent="1" source="1xCJAlItFcg6lwi7AEPt-23" target="vz7TybBeLEqPIu0Ode82-122">
          <mxGeometry relative="1" as="geometry">
            <Array as="points">
              <mxPoint x="1571" y="-849" />
            </Array>
          </mxGeometry>
        </mxCell>
        <mxCell id="1xCJAlItFcg6lwi7AEPt-23" value="二次公示" style="rounded=0;whiteSpace=wrap;html=1;fontSize=18;sketch=1;curveFitting=1;jiggle=2;fontFamily=Comic Sans MS;" parent="1" vertex="1">
          <mxGeometry x="1542" y="-708" width="100" height="30" as="geometry" />
        </mxCell>
        <mxCell id="vz7TybBeLEqPIu0Ode82-92" style="edgeStyle=orthogonalEdgeStyle;rounded=0;orthogonalLoop=1;jettySize=auto;html=1;entryX=0.509;entryY=0.028;entryDx=0;entryDy=0;entryPerimeter=0;fontFamily=Helvetica;fontSize=12;fontColor=default;" edge="1" parent="1" source="yCfuCtmDYK_FV-YPYzmW-5" target="vz7TybBeLEqPIu0Ode82-87">
          <mxGeometry relative="1" as="geometry">
            <Array as="points">
              <mxPoint x="594" y="-458" />
              <mxPoint x="594" y="-458" />
            </Array>
          </mxGeometry>
        </mxCell>
        <mxCell id="yCfuCtmDYK_FV-YPYzmW-5" value="街道告知" style="rounded=0;whiteSpace=wrap;html=1;sketch=1;hachureGap=4;jiggle=2;curveFitting=1;fontFamily=Comic Sans MS;fontSize=20;" parent="1" vertex="1">
          <mxGeometry x="511.02" y="-508" width="130" height="30" as="geometry" />
        </mxCell>
        <mxCell id="yCfuCtmDYK_FV-YPYzmW-11" value="" style="edgeStyle=orthogonalEdgeStyle;rounded=0;sketch=1;hachureGap=4;jiggle=2;curveFitting=1;orthogonalLoop=1;jettySize=auto;html=1;fontFamily=Comic Sans MS;fontSize=16;" parent="1" source="yCfuCtmDYK_FV-YPYzmW-7" target="yCfuCtmDYK_FV-YPYzmW-9" edge="1">
          <mxGeometry relative="1" as="geometry" />
        </mxCell>
        <mxCell id="yCfuCtmDYK_FV-YPYzmW-7" value="区县经办" style="rounded=0;whiteSpace=wrap;html=1;sketch=1;hachureGap=4;jiggle=2;curveFitting=1;fontFamily=Comic Sans MS;fontSize=20;" parent="1" vertex="1">
          <mxGeometry x="627" y="-328" width="130" height="30" as="geometry" />
        </mxCell>
        <mxCell id="yCfuCtmDYK_FV-YPYzmW-12" style="edgeStyle=orthogonalEdgeStyle;rounded=0;sketch=1;hachureGap=4;jiggle=2;curveFitting=1;orthogonalLoop=1;jettySize=auto;html=1;entryX=0.5;entryY=1;entryDx=0;entryDy=0;fontFamily=Comic Sans MS;fontSize=16;" parent="1" source="yCfuCtmDYK_FV-YPYzmW-13" target="1xCJAlItFcg6lwi7AEPt-12" edge="1">
          <mxGeometry relative="1" as="geometry">
            <Array as="points">
              <mxPoint x="851" y="-498" />
              <mxPoint x="791" y="-498" />
            </Array>
          </mxGeometry>
        </mxCell>
        <mxCell id="yCfuCtmDYK_FV-YPYzmW-15" value="解锁通过" style="edgeLabel;html=1;align=center;verticalAlign=middle;resizable=0;points=[];fontSize=16;fontFamily=Comic Sans MS;" parent="yCfuCtmDYK_FV-YPYzmW-12" vertex="1" connectable="0">
          <mxGeometry x="-0.0308" y="-4" relative="1" as="geometry">
            <mxPoint x="44" y="74" as="offset" />
          </mxGeometry>
        </mxCell>
        <mxCell id="yCfuCtmDYK_FV-YPYzmW-9" value="区县审核" style="rounded=0;whiteSpace=wrap;html=1;sketch=1;hachureGap=4;jiggle=2;curveFitting=1;fontFamily=Comic Sans MS;fontSize=20;" parent="1" vertex="1">
          <mxGeometry x="627" y="-258" width="130" height="30" as="geometry" />
        </mxCell>
        <mxCell id="yCfuCtmDYK_FV-YPYzmW-14" value="" style="edgeStyle=orthogonalEdgeStyle;rounded=0;sketch=1;hachureGap=4;jiggle=2;curveFitting=1;orthogonalLoop=1;jettySize=auto;html=1;entryX=0.5;entryY=1;entryDx=0;entryDy=0;fontFamily=Comic Sans MS;fontSize=16;" parent="1" source="yCfuCtmDYK_FV-YPYzmW-9" target="yCfuCtmDYK_FV-YPYzmW-13" edge="1">
          <mxGeometry relative="1" as="geometry">
            <mxPoint x="641" y="-333" as="sourcePoint" />
            <mxPoint x="791" y="-678" as="targetPoint" />
          </mxGeometry>
        </mxCell>
        <mxCell id="yCfuCtmDYK_FV-YPYzmW-18" value="" style="edgeStyle=orthogonalEdgeStyle;rounded=0;sketch=1;hachureGap=4;jiggle=2;curveFitting=1;orthogonalLoop=1;jettySize=auto;html=1;fontFamily=Comic Sans MS;fontSize=16;" parent="1" source="yCfuCtmDYK_FV-YPYzmW-13" target="yCfuCtmDYK_FV-YPYzmW-17" edge="1">
          <mxGeometry relative="1" as="geometry" />
        </mxCell>
        <mxCell id="yCfuCtmDYK_FV-YPYzmW-19" value="不予解锁" style="edgeLabel;html=1;align=center;verticalAlign=middle;resizable=0;points=[];fontSize=16;fontFamily=Comic Sans MS;" parent="yCfuCtmDYK_FV-YPYzmW-18" vertex="1" connectable="0">
          <mxGeometry x="-0.2842" y="-1" relative="1" as="geometry">
            <mxPoint x="14" y="-1" as="offset" />
          </mxGeometry>
        </mxCell>
        <mxCell id="yCfuCtmDYK_FV-YPYzmW-13" value="是否解锁" style="html=1;whiteSpace=wrap;aspect=fixed;shape=isoRectangle;sketch=1;hachureGap=4;jiggle=2;curveFitting=1;fontFamily=Comic Sans MS;fontSize=14;" parent="1" vertex="1">
          <mxGeometry x="801" y="-358" width="100" height="60" as="geometry" />
        </mxCell>
        <mxCell id="yCfuCtmDYK_FV-YPYzmW-17" value="结束" style="rounded=0;whiteSpace=wrap;html=1;fontSize=18;sketch=1;curveFitting=1;jiggle=2;fontFamily=Comic Sans MS;" parent="1" vertex="1">
          <mxGeometry x="1036" y="-343" width="100" height="30" as="geometry" />
        </mxCell>
        <mxCell id="vz7TybBeLEqPIu0Ode82-108" style="edgeStyle=orthogonalEdgeStyle;rounded=0;orthogonalLoop=1;jettySize=auto;html=1;fontFamily=Helvetica;fontSize=12;fontColor=default;sketch=1;curveFitting=1;jiggle=2;" edge="1" parent="1" source="yCfuCtmDYK_FV-YPYzmW-26" target="vz7TybBeLEqPIu0Ode82-107">
          <mxGeometry relative="1" as="geometry">
            <Array as="points">
              <mxPoint x="1771" y="-653" />
              <mxPoint x="1829" y="-653" />
            </Array>
          </mxGeometry>
        </mxCell>
        <mxCell id="vz7TybBeLEqPIu0Ode82-127" style="edgeStyle=orthogonalEdgeStyle;rounded=0;orthogonalLoop=1;jettySize=auto;html=1;exitX=0.25;exitY=0;exitDx=0;exitDy=0;entryX=1;entryY=0.75;entryDx=0;entryDy=0;fontFamily=Helvetica;fontSize=12;fontColor=default;dashed=1;sketch=1;curveFitting=1;jiggle=2;strokeColor=#FF0000;" edge="1" parent="1" source="yCfuCtmDYK_FV-YPYzmW-26" target="vz7TybBeLEqPIu0Ode82-122">
          <mxGeometry relative="1" as="geometry" />
        </mxCell>
        <mxCell id="yCfuCtmDYK_FV-YPYzmW-26" value="区县复审" style="rounded=0;whiteSpace=wrap;html=1;fontSize=18;sketch=1;curveFitting=1;jiggle=2;fontFamily=Comic Sans MS;" parent="1" vertex="1">
          <mxGeometry x="1692" y="-708" width="100" height="30" as="geometry" />
        </mxCell>
        <mxCell id="vz7TybBeLEqPIu0Ode82-69" value="" style="edgeStyle=orthogonalEdgeStyle;rounded=0;orthogonalLoop=1;jettySize=auto;html=1;fontFamily=Helvetica;fontSize=12;fontColor=default;sketch=1;curveFitting=1;jiggle=2;" edge="1" parent="1" source="yCfuCtmDYK_FV-YPYzmW-28" target="vz7TybBeLEqPIu0Ode82-66">
          <mxGeometry relative="1" as="geometry" />
        </mxCell>
        <mxCell id="vz7TybBeLEqPIu0Ode82-141" style="edgeStyle=orthogonalEdgeStyle;rounded=0;orthogonalLoop=1;jettySize=auto;html=1;entryX=0.629;entryY=1.091;entryDx=0;entryDy=0;entryPerimeter=0;fontFamily=Helvetica;fontSize=12;fontColor=default;dashed=1;sketch=1;curveFitting=1;jiggle=2;strokeColor=#FF0000;" edge="1" parent="1">
          <mxGeometry relative="1" as="geometry">
            <mxPoint x="1909" y="-711" as="sourcePoint" />
            <mxPoint x="1909.3800000000006" y="-795.5025" as="targetPoint" />
            <Array as="points">
              <mxPoint x="1909" y="-754.96" />
              <mxPoint x="1909" y="-754.96" />
            </Array>
          </mxGeometry>
        </mxCell>
        <mxCell id="yCfuCtmDYK_FV-YPYzmW-28" value="区县批次上报" style="rounded=0;whiteSpace=wrap;html=1;fontSize=18;sketch=1;curveFitting=1;jiggle=2;fontFamily=Comic Sans MS;" parent="1" vertex="1">
          <mxGeometry x="1852" y="-708" width="150" height="30" as="geometry" />
        </mxCell>
        <mxCell id="vz7TybBeLEqPIu0Ode82-77" value="" style="edgeStyle=orthogonalEdgeStyle;rounded=0;orthogonalLoop=1;jettySize=auto;html=1;fontFamily=Helvetica;fontSize=12;fontColor=default;sketch=1;curveFitting=1;jiggle=2;" edge="1" parent="1" source="yCfuCtmDYK_FV-YPYzmW-30" target="vz7TybBeLEqPIu0Ode82-76">
          <mxGeometry relative="1" as="geometry" />
        </mxCell>
        <mxCell id="vz7TybBeLEqPIu0Ode82-143" style="edgeStyle=orthogonalEdgeStyle;rounded=0;orthogonalLoop=1;jettySize=auto;html=1;entryX=0.565;entryY=1.078;entryDx=0;entryDy=0;entryPerimeter=0;fontFamily=Helvetica;fontSize=12;fontColor=default;strokeColor=#FF0000;dashed=1;sketch=1;curveFitting=1;jiggle=2;" edge="1" parent="1" source="yCfuCtmDYK_FV-YPYzmW-30" target="vz7TybBeLEqPIu0Ode82-142">
          <mxGeometry relative="1" as="geometry">
            <Array as="points">
              <mxPoint x="2174" y="-693" />
            </Array>
          </mxGeometry>
        </mxCell>
        <mxCell id="yCfuCtmDYK_FV-YPYzmW-30" value="市级备案" style="rounded=0;whiteSpace=wrap;html=1;fontSize=18;sketch=1;curveFitting=1;jiggle=2;fontFamily=Comic Sans MS;" parent="1" vertex="1">
          <mxGeometry x="2215" y="-708" width="100" height="30" as="geometry" />
        </mxCell>
        <mxCell id="yCfuCtmDYK_FV-YPYzmW-41" value="" style="edgeStyle=orthogonalEdgeStyle;rounded=0;sketch=1;hachureGap=4;jiggle=2;curveFitting=1;orthogonalLoop=1;jettySize=auto;html=1;exitX=1;exitY=0.5;exitDx=0;exitDy=0;fontFamily=Comic Sans MS;fontSize=16;" parent="1" source="1xCJAlItFcg6lwi7AEPt-2" target="yCfuCtmDYK_FV-YPYzmW-40" edge="1">
          <mxGeometry relative="1" as="geometry">
            <mxPoint x="-516" y="-693" as="sourcePoint" />
            <mxPoint x="-256" y="-693" as="targetPoint" />
          </mxGeometry>
        </mxCell>
        <mxCell id="yCfuCtmDYK_FV-YPYzmW-45" value="" style="edgeStyle=orthogonalEdgeStyle;rounded=0;sketch=1;hachureGap=4;jiggle=2;curveFitting=1;orthogonalLoop=1;jettySize=auto;html=1;fontFamily=Comic Sans MS;fontSize=16;" parent="1" source="yCfuCtmDYK_FV-YPYzmW-40" target="yCfuCtmDYK_FV-YPYzmW-44" edge="1">
          <mxGeometry relative="1" as="geometry" />
        </mxCell>
        <mxCell id="yCfuCtmDYK_FV-YPYzmW-47" value="存在已备案资格" style="edgeLabel;html=1;align=center;verticalAlign=middle;resizable=0;points=[];fontSize=16;fontFamily=Comic Sans MS;" parent="yCfuCtmDYK_FV-YPYzmW-45" vertex="1" connectable="0">
          <mxGeometry x="-0.0898" y="3" relative="1" as="geometry">
            <mxPoint as="offset" />
          </mxGeometry>
        </mxCell>
        <mxCell id="yCfuCtmDYK_FV-YPYzmW-40" value="判断申请资格类型" style="html=1;whiteSpace=wrap;aspect=fixed;shape=isoRectangle;sketch=1;hachureGap=4;jiggle=2;curveFitting=1;fontFamily=Comic Sans MS;fontSize=14;" parent="1" vertex="1">
          <mxGeometry x="-476" y="-738" width="150" height="90" as="geometry" />
        </mxCell>
        <mxCell id="yCfuCtmDYK_FV-YPYzmW-44" value="获取基础库家庭信息" style="rounded=0;whiteSpace=wrap;html=1;sketch=1;hachureGap=4;jiggle=2;curveFitting=1;fontFamily=Comic Sans MS;fontSize=20;" parent="1" vertex="1">
          <mxGeometry x="-481" y="-868" width="160" height="60" as="geometry" />
        </mxCell>
        <mxCell id="vz7TybBeLEqPIu0Ode82-152" style="edgeStyle=orthogonalEdgeStyle;rounded=0;orthogonalLoop=1;jettySize=auto;html=1;entryX=0.001;entryY=0.438;entryDx=0;entryDy=0;entryPerimeter=0;fontFamily=Helvetica;fontSize=12;fontColor=default;dashed=1;strokeColor=#FF0000;sketch=1;curveFitting=1;jiggle=2;" edge="1" parent="1" source="yCfuCtmDYK_FV-YPYzmW-49" target="vz7TybBeLEqPIu0Ode82-150">
          <mxGeometry relative="1" as="geometry" />
        </mxCell>
        <mxCell id="vz7TybBeLEqPIu0Ode82-160" style="edgeStyle=orthogonalEdgeStyle;rounded=0;orthogonalLoop=1;jettySize=auto;html=1;fontFamily=Helvetica;fontSize=12;fontColor=default;dashed=1;strokeColor=#FF0000;sketch=1;curveFitting=1;jiggle=2;" edge="1" parent="1" source="yCfuCtmDYK_FV-YPYzmW-49" target="vz7TybBeLEqPIu0Ode82-157">
          <mxGeometry relative="1" as="geometry" />
        </mxCell>
        <mxCell id="vz7TybBeLEqPIu0Ode82-162" value="" style="edgeStyle=orthogonalEdgeStyle;rounded=0;orthogonalLoop=1;jettySize=auto;html=1;fontFamily=Helvetica;fontSize=12;fontColor=default;dashed=1;strokeColor=#FF0000;sketch=1;curveFitting=1;jiggle=2;" edge="1" parent="1" source="yCfuCtmDYK_FV-YPYzmW-49" target="vz7TybBeLEqPIu0Ode82-161">
          <mxGeometry relative="1" as="geometry" />
        </mxCell>
        <mxCell id="yCfuCtmDYK_FV-YPYzmW-49" value="回写资格家庭、基础家庭&lt;br&gt;" style="rounded=0;whiteSpace=wrap;html=1;fontSize=18;sketch=1;curveFitting=1;jiggle=2;fontFamily=Comic Sans MS;" parent="1" vertex="1">
          <mxGeometry x="2381" y="-523" width="227" height="30" as="geometry" />
        </mxCell>
        <mxCell id="yCfuCtmDYK_FV-YPYzmW-58" value="表单填写" style="text;html=1;strokeColor=#d79b00;fillColor=#ffe6cc;align=center;verticalAlign=middle;whiteSpace=wrap;rounded=0;fontSize=20;" parent="1" vertex="1">
          <mxGeometry x="-639" y="-888" width="100" height="30" as="geometry" />
        </mxCell>
        <mxCell id="yCfuCtmDYK_FV-YPYzmW-63" value="接口核验、锁定信息" style="text;html=1;strokeColor=#82b366;fillColor=#d5e8d4;align=center;verticalAlign=middle;whiteSpace=wrap;rounded=0;fontSize=20;" parent="1" vertex="1">
          <mxGeometry x="416.02" y="-888" width="184.98" height="30" as="geometry" />
        </mxCell>
        <mxCell id="yCfuCtmDYK_FV-YPYzmW-64" value="审核过程" style="text;html=1;strokeColor=#6c8ebf;fillColor=#dae8fc;align=center;verticalAlign=middle;whiteSpace=wrap;rounded=0;fontSize=20;" parent="1" vertex="1">
          <mxGeometry x="731" y="-888" width="100" height="30" as="geometry" />
        </mxCell>
        <mxCell id="vz7TybBeLEqPIu0Ode82-2" value="biz_family_info 家庭基本信息&lt;br&gt;biz_family_menu_config 菜单信息&lt;br&gt;biz_family_subsidy 家庭资格表" style="rounded=1;arcSize=10;whiteSpace=wrap;html=1;align=center;sketch=1;curveFitting=1;jiggle=2;dashed=1;dashPattern=8 8;fillColor=#ffff88;strokeColor=#36393d;" vertex="1" parent="1">
          <mxGeometry x="-646" y="-583" width="200" height="55" as="geometry" />
        </mxCell>
        <mxCell id="vz7TybBeLEqPIu0Ode82-4" value="biz_family_member 成员信息表&lt;br&gt;biz_family_member_income 成员收入biz_family_houseinfo 家庭房屋信息&lt;br&gt;biz_family_member_propert 成员资产信息&lt;br&gt;biz_family_member_cars 成员车辆信息&lt;br&gt;biz_family_member_company 成员投资信息&lt;br&gt;biz_family_disability 成员残疾信息&lt;br&gt;biz_family_illness 成员大病信息&lt;br&gt;biz_family_specialinfo 成员特殊情况&lt;br&gt;biz_family_earnings_proof 成员三证信息&lt;br&gt;biz_family_ls_option 家庭核定信息" style="rounded=1;arcSize=10;whiteSpace=wrap;html=1;align=center;sketch=1;curveFitting=1;jiggle=2;dashed=1;dashPattern=8 8;fillColor=#ffff88;strokeColor=#36393d;" vertex="1" parent="1">
          <mxGeometry x="-306" y="-608" width="270" height="170" as="geometry" />
        </mxCell>
        <mxCell id="vz7TybBeLEqPIu0Ode82-134" value="" style="edgeStyle=orthogonalEdgeStyle;rounded=0;orthogonalLoop=1;jettySize=auto;html=1;fontFamily=Helvetica;fontSize=12;fontColor=default;strokeColor=#FF0000;dashed=1;sketch=1;curveFitting=1;jiggle=2;" edge="1" parent="1" source="vz7TybBeLEqPIu0Ode82-6" target="1xCJAlItFcg6lwi7AEPt-5">
          <mxGeometry relative="1" as="geometry" />
        </mxCell>
        <mxCell id="vz7TybBeLEqPIu0Ode82-6" value="工作流相关表单" style="rounded=1;arcSize=10;whiteSpace=wrap;html=1;align=center;sketch=1;curveFitting=1;jiggle=2;dashed=1;dashPattern=8 8;fillColor=#ffff88;strokeColor=#36393d;" vertex="1" parent="1">
          <mxGeometry x="14" y="-648" width="120" height="22.5" as="geometry" />
        </mxCell>
        <mxCell id="vz7TybBeLEqPIu0Ode82-39" style="edgeStyle=orthogonalEdgeStyle;rounded=0;orthogonalLoop=1;jettySize=auto;html=1;entryX=0.5;entryY=1;entryDx=0;entryDy=0;fontFamily=Helvetica;fontSize=12;fontColor=default;sketch=1;curveFitting=1;jiggle=2;" edge="1" parent="1" source="vz7TybBeLEqPIu0Ode82-37" target="1xCJAlItFcg6lwi7AEPt-20">
          <mxGeometry relative="1" as="geometry" />
        </mxCell>
        <mxCell id="vz7TybBeLEqPIu0Ode82-40" value="通过" style="edgeLabel;html=1;align=center;verticalAlign=middle;resizable=0;points=[];fontSize=16;fontFamily=Helvetica;fontColor=default;" vertex="1" connectable="0" parent="vz7TybBeLEqPIu0Ode82-39">
          <mxGeometry x="-0.5304" y="1" relative="1" as="geometry">
            <mxPoint x="13" y="1" as="offset" />
          </mxGeometry>
        </mxCell>
        <mxCell id="vz7TybBeLEqPIu0Ode82-42" style="edgeStyle=orthogonalEdgeStyle;rounded=0;orthogonalLoop=1;jettySize=auto;html=1;fontFamily=Helvetica;fontSize=12;fontColor=default;entryX=1.006;entryY=0.113;entryDx=0;entryDy=0;entryPerimeter=0;sketch=1;curveFitting=1;jiggle=2;" edge="1" parent="1" target="1xCJAlItFcg6lwi7AEPt-14">
          <mxGeometry relative="1" as="geometry">
            <mxPoint x="893.5" y="-596.4761904761906" as="sourcePoint" />
            <mxPoint x="626.0100000000002" y="-574" as="targetPoint" />
            <Array as="points">
              <mxPoint x="894" y="-600" />
              <mxPoint x="760" y="-600" />
              <mxPoint x="760" y="-573" />
            </Array>
          </mxGeometry>
        </mxCell>
        <mxCell id="vz7TybBeLEqPIu0Ode82-43" value="不通过" style="edgeLabel;html=1;align=center;verticalAlign=middle;resizable=0;points=[];fontSize=16;fontFamily=Helvetica;fontColor=default;" vertex="1" connectable="0" parent="vz7TybBeLEqPIu0Ode82-42">
          <mxGeometry x="-0.7699" y="3" relative="1" as="geometry">
            <mxPoint x="-17" y="-3" as="offset" />
          </mxGeometry>
        </mxCell>
        <mxCell id="vz7TybBeLEqPIu0Ode82-37" value="是否通过" style="html=1;whiteSpace=wrap;aspect=fixed;shape=isoRectangle;sketch=1;hachureGap=4;jiggle=2;curveFitting=1;fontFamily=Comic Sans MS;fontSize=14;" vertex="1" parent="1">
          <mxGeometry x="893.5" y="-623" width="75" height="45" as="geometry" />
        </mxCell>
        <mxCell id="vz7TybBeLEqPIu0Ode82-46" style="edgeStyle=orthogonalEdgeStyle;rounded=0;orthogonalLoop=1;jettySize=auto;html=1;entryX=0.5;entryY=1;entryDx=0;entryDy=0;fontFamily=Helvetica;fontSize=12;fontColor=default;sketch=1;curveFitting=1;jiggle=2;" edge="1" parent="1">
          <mxGeometry relative="1" as="geometry">
            <mxPoint x="1176" y="-600" as="sourcePoint" />
            <mxPoint x="1241" y="-680" as="targetPoint" />
            <Array as="points">
              <mxPoint x="1241" y="-600" />
            </Array>
          </mxGeometry>
        </mxCell>
        <mxCell id="vz7TybBeLEqPIu0Ode82-57" value="通过" style="edgeLabel;html=1;align=center;verticalAlign=middle;resizable=0;points=[];fontSize=16;fontFamily=Helvetica;fontColor=default;" vertex="1" connectable="0" parent="vz7TybBeLEqPIu0Ode82-46">
          <mxGeometry x="-0.4167" y="2" relative="1" as="geometry">
            <mxPoint x="-6" y="2" as="offset" />
          </mxGeometry>
        </mxCell>
        <mxCell id="vz7TybBeLEqPIu0Ode82-47" style="edgeStyle=orthogonalEdgeStyle;rounded=0;orthogonalLoop=1;jettySize=auto;html=1;entryX=1;entryY=0.5;entryDx=0;entryDy=0;fontFamily=Helvetica;fontSize=12;fontColor=default;exitX=0.503;exitY=1;exitDx=0;exitDy=0;exitPerimeter=0;sketch=1;curveFitting=1;jiggle=2;" edge="1" parent="1" source="vz7TybBeLEqPIu0Ode82-44" target="1xCJAlItFcg6lwi7AEPt-14">
          <mxGeometry relative="1" as="geometry">
            <mxPoint x="1138.4761904761904" y="-574" as="sourcePoint" />
            <mxPoint x="626.0100000000002" y="-559" as="targetPoint" />
            <Array as="points">
              <mxPoint x="1139" y="-559" />
              <mxPoint x="631" y="-559" />
              <mxPoint x="631" y="-558" />
            </Array>
          </mxGeometry>
        </mxCell>
        <mxCell id="vz7TybBeLEqPIu0Ode82-58" value="不通过" style="edgeLabel;html=1;align=center;verticalAlign=middle;resizable=0;points=[];fontSize=16;fontFamily=Helvetica;fontColor=default;" vertex="1" connectable="0" parent="vz7TybBeLEqPIu0Ode82-47">
          <mxGeometry x="-0.6082" y="2" relative="1" as="geometry">
            <mxPoint x="-208" y="-5" as="offset" />
          </mxGeometry>
        </mxCell>
        <mxCell id="vz7TybBeLEqPIu0Ode82-44" value="是否通过" style="html=1;whiteSpace=wrap;aspect=fixed;shape=isoRectangle;sketch=1;hachureGap=4;jiggle=2;curveFitting=1;fontFamily=Comic Sans MS;fontSize=14;" vertex="1" parent="1">
          <mxGeometry x="1101" y="-623" width="75" height="45" as="geometry" />
        </mxCell>
        <mxCell id="vz7TybBeLEqPIu0Ode82-52" value="" style="edgeStyle=orthogonalEdgeStyle;rounded=0;orthogonalLoop=1;jettySize=auto;html=1;fontFamily=Helvetica;fontSize=12;fontColor=default;sketch=1;curveFitting=1;jiggle=2;" edge="1" parent="1" source="vz7TybBeLEqPIu0Ode82-48" target="vz7TybBeLEqPIu0Ode82-51">
          <mxGeometry relative="1" as="geometry" />
        </mxCell>
        <mxCell id="vz7TybBeLEqPIu0Ode82-138" style="edgeStyle=orthogonalEdgeStyle;rounded=0;orthogonalLoop=1;jettySize=auto;html=1;fontFamily=Helvetica;fontSize=12;fontColor=default;dashed=1;strokeColor=#FF0000;sketch=1;curveFitting=1;jiggle=2;" edge="1" parent="1" source="vz7TybBeLEqPIu0Ode82-48" target="vz7TybBeLEqPIu0Ode82-128">
          <mxGeometry relative="1" as="geometry">
            <Array as="points">
              <mxPoint x="1439" y="-748" />
              <mxPoint x="1881" y="-748" />
            </Array>
          </mxGeometry>
        </mxCell>
        <mxCell id="vz7TybBeLEqPIu0Ode82-48" value="区县批次接收" style="rounded=0;whiteSpace=wrap;html=1;fontSize=18;sketch=1;curveFitting=1;jiggle=2;fontFamily=Comic Sans MS;" vertex="1" parent="1">
          <mxGeometry x="1381" y="-708" width="115" height="30" as="geometry" />
        </mxCell>
        <mxCell id="vz7TybBeLEqPIu0Ode82-53" style="edgeStyle=orthogonalEdgeStyle;rounded=0;orthogonalLoop=1;jettySize=auto;html=1;entryX=0.553;entryY=0.989;entryDx=0;entryDy=0;entryPerimeter=0;fontFamily=Helvetica;fontSize=12;fontColor=default;sketch=1;curveFitting=1;jiggle=2;" edge="1" parent="1">
          <mxGeometry relative="1" as="geometry">
            <mxPoint x="1455" y="-604.6223809523813" as="sourcePoint" />
            <mxPoint x="1576.3000000000002" y="-680.0000000000002" as="targetPoint" />
            <Array as="points">
              <mxPoint x="1455" y="-600" />
              <mxPoint x="1576" y="-600" />
            </Array>
          </mxGeometry>
        </mxCell>
        <mxCell id="vz7TybBeLEqPIu0Ode82-54" value="接收" style="edgeLabel;html=1;align=center;verticalAlign=middle;resizable=0;points=[];fontSize=16;fontFamily=Helvetica;fontColor=default;" vertex="1" connectable="0" parent="vz7TybBeLEqPIu0Ode82-53">
          <mxGeometry x="-0.3338" y="1" relative="1" as="geometry">
            <mxPoint as="offset" />
          </mxGeometry>
        </mxCell>
        <mxCell id="vz7TybBeLEqPIu0Ode82-55" style="edgeStyle=orthogonalEdgeStyle;rounded=0;orthogonalLoop=1;jettySize=auto;html=1;fontFamily=Helvetica;fontSize=12;fontColor=default;sketch=1;curveFitting=1;jiggle=2;" edge="1" parent="1" target="1xCJAlItFcg6lwi7AEPt-21">
          <mxGeometry relative="1" as="geometry">
            <mxPoint x="1401" y="-600.9523809523812" as="sourcePoint" />
            <mxPoint x="1262.6" y="-674.8600000000001" as="targetPoint" />
            <Array as="points">
              <mxPoint x="1263" y="-601" />
            </Array>
          </mxGeometry>
        </mxCell>
        <mxCell id="vz7TybBeLEqPIu0Ode82-56" value="退回" style="edgeLabel;html=1;align=center;verticalAlign=middle;resizable=0;points=[];fontSize=16;fontFamily=Helvetica;fontColor=default;" vertex="1" connectable="0" parent="vz7TybBeLEqPIu0Ode82-55">
          <mxGeometry x="-0.3794" y="3" relative="1" as="geometry">
            <mxPoint y="-3" as="offset" />
          </mxGeometry>
        </mxCell>
        <mxCell id="vz7TybBeLEqPIu0Ode82-51" value="是否退回" style="html=1;whiteSpace=wrap;aspect=fixed;shape=isoRectangle;sketch=1;hachureGap=4;jiggle=2;curveFitting=1;fontFamily=Comic Sans MS;fontSize=14;" vertex="1" parent="1">
          <mxGeometry x="1401" y="-623" width="75" height="45" as="geometry" />
        </mxCell>
        <mxCell id="vz7TybBeLEqPIu0Ode82-61" style="edgeStyle=orthogonalEdgeStyle;rounded=0;orthogonalLoop=1;jettySize=auto;html=1;entryX=0.549;entryY=1.052;entryDx=0;entryDy=0;fontFamily=Helvetica;fontSize=12;fontColor=default;exitX=1.003;exitY=0.496;exitDx=0;exitDy=0;exitPerimeter=0;entryPerimeter=0;sketch=1;curveFitting=1;jiggle=2;" edge="1" parent="1" source="vz7TybBeLEqPIu0Ode82-59" target="yCfuCtmDYK_FV-YPYzmW-26">
          <mxGeometry relative="1" as="geometry">
            <mxPoint x="1654.4761904761904" y="-620" as="sourcePoint" />
            <mxPoint x="1742" y="-675" as="targetPoint" />
          </mxGeometry>
        </mxCell>
        <mxCell id="vz7TybBeLEqPIu0Ode82-65" value="通过" style="edgeLabel;html=1;align=center;verticalAlign=middle;resizable=0;points=[];fontSize=16;fontFamily=Helvetica;fontColor=default;" vertex="1" connectable="0" parent="vz7TybBeLEqPIu0Ode82-61">
          <mxGeometry x="-0.3958" y="-1" relative="1" as="geometry">
            <mxPoint x="-10" y="-1" as="offset" />
          </mxGeometry>
        </mxCell>
        <mxCell id="vz7TybBeLEqPIu0Ode82-63" style="edgeStyle=orthogonalEdgeStyle;rounded=0;orthogonalLoop=1;jettySize=auto;html=1;entryX=1.017;entryY=0.847;entryDx=0;entryDy=0;fontFamily=Helvetica;fontSize=12;fontColor=default;exitX=0.517;exitY=0.976;exitDx=0;exitDy=0;exitPerimeter=0;entryPerimeter=0;" edge="1" parent="1" target="1xCJAlItFcg6lwi7AEPt-14">
          <mxGeometry relative="1" as="geometry">
            <mxPoint x="1654.775" y="-579.08" as="sourcePoint" />
            <mxPoint x="628.0100000000002" y="-544" as="targetPoint" />
            <Array as="points">
              <mxPoint x="1655" y="-578" />
              <mxPoint x="1655" y="-544" />
            </Array>
          </mxGeometry>
        </mxCell>
        <mxCell id="vz7TybBeLEqPIu0Ode82-64" value="不通过" style="edgeLabel;html=1;align=center;verticalAlign=middle;resizable=0;points=[];fontSize=16;fontFamily=Helvetica;fontColor=default;" vertex="1" connectable="0" parent="vz7TybBeLEqPIu0Ode82-63">
          <mxGeometry x="-0.4058" relative="1" as="geometry">
            <mxPoint x="-473" y="1" as="offset" />
          </mxGeometry>
        </mxCell>
        <mxCell id="vz7TybBeLEqPIu0Ode82-59" value="是否通过" style="html=1;whiteSpace=wrap;aspect=fixed;shape=isoRectangle;sketch=1;hachureGap=4;jiggle=2;curveFitting=1;fontFamily=Comic Sans MS;fontSize=14;" vertex="1" parent="1">
          <mxGeometry x="1617" y="-623" width="75" height="45" as="geometry" />
        </mxCell>
        <mxCell id="vz7TybBeLEqPIu0Ode82-71" value="" style="edgeStyle=orthogonalEdgeStyle;rounded=0;orthogonalLoop=1;jettySize=auto;html=1;fontFamily=Helvetica;fontSize=12;fontColor=default;sketch=1;curveFitting=1;jiggle=2;" edge="1" parent="1" source="vz7TybBeLEqPIu0Ode82-66" target="vz7TybBeLEqPIu0Ode82-70">
          <mxGeometry relative="1" as="geometry" />
        </mxCell>
        <mxCell id="vz7TybBeLEqPIu0Ode82-135" style="edgeStyle=orthogonalEdgeStyle;rounded=0;orthogonalLoop=1;jettySize=auto;html=1;entryX=1;entryY=0.5;entryDx=0;entryDy=0;fontFamily=Helvetica;fontSize=12;fontColor=default;sketch=1;curveFitting=1;jiggle=2;dashed=1;strokeColor=#FF0000;" edge="1" parent="1" source="vz7TybBeLEqPIu0Ode82-66" target="vz7TybBeLEqPIu0Ode82-128">
          <mxGeometry relative="1" as="geometry">
            <Array as="points">
              <mxPoint x="2151" y="-812" />
            </Array>
          </mxGeometry>
        </mxCell>
        <mxCell id="vz7TybBeLEqPIu0Ode82-66" value="市级批次接收" style="rounded=0;whiteSpace=wrap;html=1;fontSize=18;sketch=1;curveFitting=1;jiggle=2;fontFamily=Comic Sans MS;" vertex="1" parent="1">
          <mxGeometry x="2051" y="-708" width="115" height="30" as="geometry" />
        </mxCell>
        <mxCell id="vz7TybBeLEqPIu0Ode82-72" style="edgeStyle=orthogonalEdgeStyle;rounded=0;orthogonalLoop=1;jettySize=auto;html=1;entryX=0.579;entryY=1.086;entryDx=0;entryDy=0;entryPerimeter=0;fontFamily=Helvetica;fontSize=12;fontColor=default;sketch=1;curveFitting=1;jiggle=2;" edge="1" parent="1">
          <mxGeometry relative="1" as="geometry">
            <mxPoint x="2142" y="-600.4761904761906" as="sourcePoint" />
            <mxPoint x="2268.8999999999996" y="-675.4200000000001" as="targetPoint" />
          </mxGeometry>
        </mxCell>
        <mxCell id="vz7TybBeLEqPIu0Ode82-75" value="接收" style="edgeLabel;html=1;align=center;verticalAlign=middle;resizable=0;points=[];fontSize=16;fontFamily=Helvetica;fontColor=default;" vertex="1" connectable="0" parent="vz7TybBeLEqPIu0Ode82-72">
          <mxGeometry x="-0.2539" y="3" relative="1" as="geometry">
            <mxPoint x="-6" y="3" as="offset" />
          </mxGeometry>
        </mxCell>
        <mxCell id="vz7TybBeLEqPIu0Ode82-73" style="edgeStyle=orthogonalEdgeStyle;rounded=0;orthogonalLoop=1;jettySize=auto;html=1;entryX=0.5;entryY=1;entryDx=0;entryDy=0;fontFamily=Helvetica;fontSize=12;fontColor=default;sketch=1;curveFitting=1;jiggle=2;" edge="1" parent="1" source="vz7TybBeLEqPIu0Ode82-70" target="yCfuCtmDYK_FV-YPYzmW-28">
          <mxGeometry relative="1" as="geometry" />
        </mxCell>
        <mxCell id="vz7TybBeLEqPIu0Ode82-74" value="退回" style="edgeLabel;html=1;align=center;verticalAlign=middle;resizable=0;points=[];fontSize=16;fontFamily=Helvetica;fontColor=default;" vertex="1" connectable="0" parent="vz7TybBeLEqPIu0Ode82-73">
          <mxGeometry x="-0.3809" y="2" relative="1" as="geometry">
            <mxPoint y="-2" as="offset" />
          </mxGeometry>
        </mxCell>
        <mxCell id="vz7TybBeLEqPIu0Ode82-70" value="是否退回" style="html=1;whiteSpace=wrap;aspect=fixed;shape=isoRectangle;sketch=1;hachureGap=4;jiggle=2;curveFitting=1;fontFamily=Comic Sans MS;fontSize=14;" vertex="1" parent="1">
          <mxGeometry x="2071" y="-623" width="75" height="45" as="geometry" />
        </mxCell>
        <mxCell id="vz7TybBeLEqPIu0Ode82-78" style="edgeStyle=orthogonalEdgeStyle;rounded=0;orthogonalLoop=1;jettySize=auto;html=1;entryX=0.5;entryY=0;entryDx=0;entryDy=0;fontFamily=Helvetica;fontSize=12;fontColor=default;sketch=1;curveFitting=1;jiggle=2;" edge="1" parent="1" source="vz7TybBeLEqPIu0Ode82-76" target="yCfuCtmDYK_FV-YPYzmW-28">
          <mxGeometry relative="1" as="geometry" />
        </mxCell>
        <mxCell id="vz7TybBeLEqPIu0Ode82-80" value="市级备案不通过" style="edgeLabel;html=1;align=center;verticalAlign=middle;resizable=0;points=[];fontSize=16;fontFamily=Helvetica;fontColor=default;" vertex="1" connectable="0" parent="vz7TybBeLEqPIu0Ode82-78">
          <mxGeometry x="-0.2001" y="-1" relative="1" as="geometry">
            <mxPoint x="-39" y="1" as="offset" />
          </mxGeometry>
        </mxCell>
        <mxCell id="vz7TybBeLEqPIu0Ode82-79" style="edgeStyle=orthogonalEdgeStyle;rounded=0;orthogonalLoop=1;jettySize=auto;html=1;entryX=0.5;entryY=0;entryDx=0;entryDy=0;fontFamily=Helvetica;fontSize=12;fontColor=default;sketch=1;curveFitting=1;jiggle=2;" edge="1" parent="1" source="vz7TybBeLEqPIu0Ode82-76" target="yCfuCtmDYK_FV-YPYzmW-49">
          <mxGeometry relative="1" as="geometry" />
        </mxCell>
        <mxCell id="vz7TybBeLEqPIu0Ode82-81" value="市级备案通过" style="edgeLabel;html=1;align=center;verticalAlign=middle;resizable=0;points=[];fontSize=16;fontFamily=Helvetica;fontColor=default;" vertex="1" connectable="0" parent="vz7TybBeLEqPIu0Ode82-79">
          <mxGeometry x="-0.0081" y="-2" relative="1" as="geometry">
            <mxPoint x="2" y="45" as="offset" />
          </mxGeometry>
        </mxCell>
        <mxCell id="vz7TybBeLEqPIu0Ode82-76" value="是否通过备案" style="html=1;whiteSpace=wrap;aspect=fixed;shape=isoRectangle;sketch=1;hachureGap=4;jiggle=2;curveFitting=1;fontFamily=Comic Sans MS;fontSize=14;" vertex="1" parent="1">
          <mxGeometry x="2210.08" y="-808" width="109.83" height="65.9" as="geometry" />
        </mxCell>
        <mxCell id="vz7TybBeLEqPIu0Ode82-85" value="" style="edgeStyle=orthogonalEdgeStyle;rounded=0;orthogonalLoop=1;jettySize=auto;html=1;fontFamily=Helvetica;fontSize=12;fontColor=default;" edge="1" parent="1" source="vz7TybBeLEqPIu0Ode82-82" target="vz7TybBeLEqPIu0Ode82-83">
          <mxGeometry relative="1" as="geometry" />
        </mxCell>
        <mxCell id="vz7TybBeLEqPIu0Ode82-82" value="街道经办" style="rounded=0;whiteSpace=wrap;html=1;sketch=1;hachureGap=4;jiggle=2;curveFitting=1;fontFamily=Comic Sans MS;fontSize=20;" vertex="1" parent="1">
          <mxGeometry x="483.52" y="-328" width="130" height="30" as="geometry" />
        </mxCell>
        <mxCell id="vz7TybBeLEqPIu0Ode82-86" style="edgeStyle=orthogonalEdgeStyle;rounded=0;orthogonalLoop=1;jettySize=auto;html=1;exitX=0.5;exitY=1;exitDx=0;exitDy=0;entryX=0.5;entryY=1.006;entryDx=0;entryDy=0;entryPerimeter=0;fontFamily=Helvetica;fontSize=12;fontColor=default;sketch=1;curveFitting=1;jiggle=2;" edge="1" parent="1" source="vz7TybBeLEqPIu0Ode82-83" target="yCfuCtmDYK_FV-YPYzmW-13">
          <mxGeometry relative="1" as="geometry" />
        </mxCell>
        <mxCell id="vz7TybBeLEqPIu0Ode82-83" value="街道审核" style="rounded=0;whiteSpace=wrap;html=1;sketch=1;hachureGap=4;jiggle=2;curveFitting=1;fontFamily=Comic Sans MS;fontSize=20;" vertex="1" parent="1">
          <mxGeometry x="483.52" y="-258" width="130" height="30" as="geometry" />
        </mxCell>
        <mxCell id="vz7TybBeLEqPIu0Ode82-91" style="edgeStyle=orthogonalEdgeStyle;rounded=0;orthogonalLoop=1;jettySize=auto;html=1;entryX=0.25;entryY=0;entryDx=0;entryDy=0;fontFamily=Helvetica;fontSize=12;fontColor=default;exitX=0.013;exitY=0.502;exitDx=0;exitDy=0;exitPerimeter=0;sketch=1;curveFitting=1;jiggle=2;" edge="1" parent="1">
          <mxGeometry relative="1" as="geometry">
            <mxPoint x="544.8000000000006" y="-417.8799999999999" as="sourcePoint" />
            <mxPoint x="500.52" y="-328" as="targetPoint" />
            <Array as="points">
              <mxPoint x="501" y="-418" />
            </Array>
          </mxGeometry>
        </mxCell>
        <mxCell id="vz7TybBeLEqPIu0Ode82-93" value="初审、一次公示不通过" style="edgeLabel;html=1;align=center;verticalAlign=middle;resizable=0;points=[];fontSize=16;fontFamily=Helvetica;fontColor=default;" vertex="1" connectable="0" parent="vz7TybBeLEqPIu0Ode82-91">
          <mxGeometry x="0.3193" y="1" relative="1" as="geometry">
            <mxPoint y="1" as="offset" />
          </mxGeometry>
        </mxCell>
        <mxCell id="vz7TybBeLEqPIu0Ode82-94" style="edgeStyle=orthogonalEdgeStyle;rounded=0;orthogonalLoop=1;jettySize=auto;html=1;entryX=0.854;entryY=0.056;entryDx=0;entryDy=0;entryPerimeter=0;fontFamily=Helvetica;fontSize=12;fontColor=default;sketch=1;curveFitting=1;jiggle=2;" edge="1" parent="1">
          <mxGeometry relative="1" as="geometry">
            <mxPoint x="623.51" y="-419.64969696969695" as="sourcePoint" />
            <mxPoint x="718.03" y="-327.9999999999999" as="targetPoint" />
            <Array as="points">
              <mxPoint x="718.01" y="-419.67999999999995" />
            </Array>
          </mxGeometry>
        </mxCell>
        <mxCell id="vz7TybBeLEqPIu0Ode82-95" value="接口信息、二次公示、复审不通过" style="edgeLabel;html=1;align=center;verticalAlign=middle;resizable=0;points=[];fontSize=16;fontFamily=Helvetica;fontColor=default;" vertex="1" connectable="0" parent="vz7TybBeLEqPIu0Ode82-94">
          <mxGeometry x="0.5248" y="1" relative="1" as="geometry">
            <mxPoint as="offset" />
          </mxGeometry>
        </mxCell>
        <mxCell id="vz7TybBeLEqPIu0Ode82-87" value="判断锁定类型" style="html=1;whiteSpace=wrap;aspect=fixed;shape=isoRectangle;sketch=1;hachureGap=4;jiggle=2;curveFitting=1;fontFamily=Comic Sans MS;fontSize=14;" vertex="1" parent="1">
          <mxGeometry x="543.5" y="-448" width="100" height="60" as="geometry" />
        </mxCell>
        <mxCell id="vz7TybBeLEqPIu0Ode82-97" value="" style="edgeStyle=orthogonalEdgeStyle;rounded=0;sketch=1;hachureGap=4;jiggle=2;curveFitting=1;orthogonalLoop=1;jettySize=auto;html=1;exitX=1;exitY=0.5;exitDx=0;exitDy=0;entryX=-0.026;entryY=0.486;entryDx=0;entryDy=0;entryPerimeter=0;fontFamily=Comic Sans MS;fontSize=16;" edge="1" parent="1" source="1xCJAlItFcg6lwi7AEPt-8" target="vz7TybBeLEqPIu0Ode82-96">
          <mxGeometry relative="1" as="geometry">
            <mxPoint x="274" y="-693" as="sourcePoint" />
            <mxPoint x="497" y="-694" as="targetPoint" />
          </mxGeometry>
        </mxCell>
        <mxCell id="vz7TybBeLEqPIu0Ode82-98" value="" style="edgeStyle=orthogonalEdgeStyle;rounded=0;orthogonalLoop=1;jettySize=auto;html=1;fontFamily=Helvetica;fontSize=12;fontColor=default;sketch=1;curveFitting=1;jiggle=2;" edge="1" parent="1" source="vz7TybBeLEqPIu0Ode82-96" target="1xCJAlItFcg6lwi7AEPt-10">
          <mxGeometry relative="1" as="geometry" />
        </mxCell>
        <mxCell id="vz7TybBeLEqPIu0Ode82-118" style="edgeStyle=orthogonalEdgeStyle;rounded=0;orthogonalLoop=1;jettySize=auto;html=1;entryX=0.533;entryY=0.008;entryDx=0;entryDy=0;entryPerimeter=0;fontFamily=Helvetica;fontSize=12;fontColor=default;sketch=1;curveFitting=1;jiggle=2;dashed=1;strokeColor=#FF0000;" edge="1" parent="1" source="vz7TybBeLEqPIu0Ode82-96" target="vz7TybBeLEqPIu0Ode82-117">
          <mxGeometry relative="1" as="geometry" />
        </mxCell>
        <mxCell id="vz7TybBeLEqPIu0Ode82-96" value="定时器回写接口数据" style="rounded=0;whiteSpace=wrap;html=1;fontSize=18;sketch=1;curveFitting=1;jiggle=2;fontFamily=Comic Sans MS;" vertex="1" parent="1">
          <mxGeometry x="331" y="-718" width="100" height="50" as="geometry" />
        </mxCell>
        <mxCell id="vz7TybBeLEqPIu0Ode82-101" value="biz_family_send_memberinfo 接口待发送表" style="rounded=1;arcSize=10;whiteSpace=wrap;html=1;align=center;sketch=1;curveFitting=1;jiggle=2;dashed=1;dashPattern=8 8;fillColor=#ffff88;strokeColor=#36393d;" vertex="1" parent="1">
          <mxGeometry x="-16" y="-818" width="250" height="22.5" as="geometry" />
        </mxCell>
        <mxCell id="vz7TybBeLEqPIu0Ode82-106" value="数据回写" style="text;html=1;strokeColor=#6c8ebf;fillColor=#dae8fc;align=center;verticalAlign=middle;whiteSpace=wrap;rounded=0;fontSize=20;" vertex="1" parent="1">
          <mxGeometry x="2341" y="-888" width="100" height="30" as="geometry" />
        </mxCell>
        <mxCell id="vz7TybBeLEqPIu0Ode82-109" style="edgeStyle=orthogonalEdgeStyle;rounded=0;orthogonalLoop=1;jettySize=auto;html=1;entryX=0.349;entryY=0.942;entryDx=0;entryDy=0;entryPerimeter=0;fontFamily=Helvetica;fontSize=12;fontColor=default;sketch=1;curveFitting=1;jiggle=2;" edge="1" parent="1" target="yCfuCtmDYK_FV-YPYzmW-28">
          <mxGeometry relative="1" as="geometry">
            <mxPoint x="1867.0000000000005" y="-601" as="sourcePoint" />
            <mxPoint x="1903.9000000000005" y="-673.0899999999999" as="targetPoint" />
            <Array as="points">
              <mxPoint x="1904" y="-601" />
            </Array>
          </mxGeometry>
        </mxCell>
        <mxCell id="vz7TybBeLEqPIu0Ode82-110" style="edgeStyle=orthogonalEdgeStyle;rounded=0;orthogonalLoop=1;jettySize=auto;html=1;fontFamily=Helvetica;fontSize=12;fontColor=default;entryX=0.911;entryY=1.016;entryDx=0;entryDy=0;entryPerimeter=0;" edge="1" parent="1" target="1xCJAlItFcg6lwi7AEPt-14">
          <mxGeometry relative="1" as="geometry">
            <mxPoint x="615" y="-536" as="targetPoint" />
            <mxPoint x="1829.490909090909" y="-581" as="sourcePoint" />
            <Array as="points">
              <mxPoint x="1830" y="-526" />
              <mxPoint x="615" y="-526" />
            </Array>
          </mxGeometry>
        </mxCell>
        <mxCell id="vz7TybBeLEqPIu0Ode82-111" value="不通过" style="edgeLabel;html=1;align=center;verticalAlign=middle;resizable=0;points=[];fontSize=16;fontFamily=Helvetica;fontColor=default;" vertex="1" connectable="0" parent="vz7TybBeLEqPIu0Ode82-110">
          <mxGeometry x="0.1642" y="-2" relative="1" as="geometry">
            <mxPoint x="-179" y="2" as="offset" />
          </mxGeometry>
        </mxCell>
        <mxCell id="vz7TybBeLEqPIu0Ode82-107" value="是否通过" style="html=1;whiteSpace=wrap;aspect=fixed;shape=isoRectangle;sketch=1;hachureGap=4;jiggle=2;curveFitting=1;fontFamily=Comic Sans MS;fontSize=14;" vertex="1" parent="1">
          <mxGeometry x="1792" y="-623" width="75" height="45" as="geometry" />
        </mxCell>
        <mxCell id="vz7TybBeLEqPIu0Ode82-117" value="interface_police 公安接口数据（CVS解析后）&lt;br&gt;ds_result 地税反馈数据&lt;br&gt;interface_civil 民政婚姻反馈数据&lt;br&gt;interface_gjj 公积金反馈数据&lt;br&gt;interface_civil_checkcenter 殡葬、社球接口反馈数据&lt;br&gt;interface_checkcenter_report&amp;nbsp; 核对报告接口反馈数据&lt;br&gt;t_bzf_check_family_member_room 房产交易记录&lt;br&gt;&lt;br&gt;biz_family_result_certificatio 公安比对结果&lt;br&gt;biz_family_result_checkcenter&amp;nbsp;&amp;nbsp;殡葬、社球接口比对结果&lt;br&gt;biz_family_result_marriage 民政婚姻比对结果&lt;br&gt;biz_family_result_memberhouse 房产比对结果&lt;br&gt;biz_family_result_publicfund 公积金比对结果&lt;br&gt;biz_family_result_taxinfo 地税比对结果" style="rounded=1;arcSize=10;whiteSpace=wrap;html=1;align=center;sketch=1;curveFitting=1;jiggle=2;dashed=1;dashPattern=8 8;fillColor=#ffff88;strokeColor=#36393d;" vertex="1" parent="1">
          <mxGeometry x="81" y="-608" width="320" height="240" as="geometry" />
        </mxCell>
        <mxCell id="vz7TybBeLEqPIu0Ode82-119" value="biz_family_checkcenter_info 核对报告审批&lt;br&gt;biz_family_checkcenter_opinion 核对报告审批意见" style="rounded=1;arcSize=10;whiteSpace=wrap;html=1;align=center;sketch=1;curveFitting=1;jiggle=2;dashed=1;dashPattern=8 8;fillColor=#f5f5f5;fontColor=#333333;strokeColor=#666666;" vertex="1" parent="1">
          <mxGeometry x="427.02" y="-841" width="280" height="62.5" as="geometry" />
        </mxCell>
        <mxCell id="vz7TybBeLEqPIu0Ode82-121" value="biz_family_datalockinfo 锁定信息&lt;br&gt;biz_family_datalockdetail 锁定明细" style="rounded=1;arcSize=10;whiteSpace=wrap;html=1;align=center;sketch=1;curveFitting=1;jiggle=2;dashed=1;dashPattern=8 8;fillColor=#f5f5f5;fontColor=#333333;strokeColor=#666666;" vertex="1" parent="1">
          <mxGeometry x="901" y="-458" width="280" height="62.5" as="geometry" />
        </mxCell>
        <mxCell id="vz7TybBeLEqPIu0Ode82-122" value="biz_family_publicity 一、二次公示表&lt;br&gt;biz_family_approveinfo 初审、复审结果&lt;br&gt;biz_family_approve_list 初审、复审明细" style="rounded=1;arcSize=10;whiteSpace=wrap;html=1;align=center;sketch=1;curveFitting=1;jiggle=2;dashed=1;dashPattern=8 8;fillColor=#bac8d3;strokeColor=#23445d;" vertex="1" parent="1">
          <mxGeometry x="1121" y="-880.5" width="280" height="62.5" as="geometry" />
        </mxCell>
        <mxCell id="vz7TybBeLEqPIu0Ode82-128" value="Biz_Family_Batchinfo 批次信息表&lt;br&gt;Biz_Family_Batch_Ref 批次家庭关系表" style="rounded=1;arcSize=10;whiteSpace=wrap;html=1;align=center;sketch=1;curveFitting=1;jiggle=2;dashed=1;dashPattern=8 8;fillColor=#bac8d3;strokeColor=#23445d;" vertex="1" parent="1">
          <mxGeometry x="1771" y="-828" width="220" height="32.5" as="geometry" />
        </mxCell>
        <mxCell id="vz7TybBeLEqPIu0Ode82-142" value="biz_family_operator_apporve 备案审核意见" style="rounded=1;arcSize=10;whiteSpace=wrap;html=1;align=center;sketch=1;curveFitting=1;jiggle=2;dashed=1;dashPattern=8 8;fillColor=#bac8d3;strokeColor=#23445d;" vertex="1" parent="1">
          <mxGeometry x="2021" y="-878" width="270" height="25.5" as="geometry" />
        </mxCell>
        <mxCell id="vz7TybBeLEqPIu0Ode82-146" value="Text" style="text;html=1;strokeColor=none;fillColor=none;align=center;verticalAlign=middle;whiteSpace=wrap;rounded=0;fontSize=12;fontFamily=Helvetica;fontColor=default;" vertex="1" parent="1">
          <mxGeometry x="1041" y="-668" width="60" height="30" as="geometry" />
        </mxCell>
        <mxCell id="vz7TybBeLEqPIu0Ode82-147" value="Text" style="text;html=1;strokeColor=none;fillColor=none;align=center;verticalAlign=middle;whiteSpace=wrap;rounded=0;fontSize=12;fontFamily=Helvetica;fontColor=default;" vertex="1" parent="1">
          <mxGeometry x="1041" y="-668" width="60" height="30" as="geometry" />
        </mxCell>
        <mxCell id="vz7TybBeLEqPIu0Ode82-148" value="Text" style="text;html=1;strokeColor=none;fillColor=none;align=center;verticalAlign=middle;whiteSpace=wrap;rounded=0;fontSize=12;fontFamily=Helvetica;fontColor=default;" vertex="1" parent="1">
          <mxGeometry x="1041" y="-668" width="60" height="30" as="geometry" />
        </mxCell>
        <mxCell id="vz7TybBeLEqPIu0Ode82-150" value="" style="rounded=1;arcSize=10;whiteSpace=wrap;html=1;align=center;dashed=1;dashPattern=8 8;fillColor=#eeeeee;strokeColor=#36393d;" vertex="1" parent="1">
          <mxGeometry x="2711" y="-888" width="430" height="370" as="geometry" />
        </mxCell>
        <mxCell id="vz7TybBeLEqPIu0Ode82-154" value="基础家庭" style="text;html=1;strokeColor=#36393d;fillColor=#ffcc99;align=center;verticalAlign=middle;whiteSpace=wrap;rounded=0;fontSize=14;" vertex="1" parent="1">
          <mxGeometry x="2731" y="-878" width="70" height="20" as="geometry" />
        </mxCell>
        <mxCell id="vz7TybBeLEqPIu0Ode82-174" style="edgeStyle=orthogonalEdgeStyle;rounded=0;orthogonalLoop=1;jettySize=auto;html=1;exitX=0.25;exitY=0;exitDx=0;exitDy=0;entryX=0.5;entryY=0;entryDx=0;entryDy=0;fontFamily=Helvetica;fontSize=12;fontColor=default;" edge="1" parent="1" source="vz7TybBeLEqPIu0Ode82-156" target="1xCJAlItFcg6lwi7AEPt-3">
          <mxGeometry relative="1" as="geometry">
            <Array as="points">
              <mxPoint x="2829" y="-930" />
              <mxPoint x="-81" y="-930" />
            </Array>
          </mxGeometry>
        </mxCell>
        <mxCell id="vz7TybBeLEqPIu0Ode82-175" value="抽取已备案基础家庭数据" style="edgeLabel;html=1;align=center;verticalAlign=middle;resizable=0;points=[];fontSize=24;fontFamily=Helvetica;fontColor=default;" vertex="1" connectable="0" parent="vz7TybBeLEqPIu0Ode82-174">
          <mxGeometry x="0.0046" y="1" relative="1" as="geometry">
            <mxPoint x="-33" as="offset" />
          </mxGeometry>
        </mxCell>
        <mxCell id="vz7TybBeLEqPIu0Ode82-156" value="base_family_info 家庭基本信息&lt;br&gt;base_family_subsidy 基础资格信息&lt;br&gt;base_family_member 成员信息&lt;br&gt;base_family_member_relation&amp;nbsp;成员关系表&lt;br&gt;base_family_personinfo 成员基础信息&lt;br&gt;base_family_memberaddress 成员关系表&lt;br&gt;base_family_member_propert 成员资产信息&lt;br&gt;base_family_earnings_proof 成员三证信息&lt;br&gt;base_family_housing_proof 家庭住房证明表&lt;br&gt;base_family_income 成员收入信息&lt;br&gt;base_family_special_person 成员特殊证件信息&lt;br&gt;base_family_familyhouse 家庭房产信息&lt;br&gt;base_family_ls_option 家庭核定信息&lt;br&gt;base_family_subsidy_lowensure 家庭低保信息&lt;br&gt;base_family_earnings_proof 成员三证信息&lt;br&gt;base_family_member_company 成员投资信息（精简材料家庭同步）&lt;br&gt;Base_Family_Membercars 成员车辆信息（精简材料家庭同步）base_family_member_income 成员收入信息（精简材料家庭同步）&lt;br style=&quot;border-color: var(--border-color);&quot;&gt;base_family_illness 成员大病信息（精简材料家庭同步）&lt;br style=&quot;border-color: var(--border-color);&quot;&gt;base_family_disability 成员残疾信息（精简材料家庭同步）&lt;br style=&quot;border-color: var(--border-color);&quot;&gt;base_family_specialinfo 成员特殊情况信息（精简材料家庭同步）&lt;br&gt;" style="rounded=1;arcSize=10;whiteSpace=wrap;html=1;align=center;sketch=1;curveFitting=1;jiggle=2;dashed=1;dashPattern=8 8;fillColor=#ffcccc;strokeColor=#36393d;" vertex="1" parent="1">
          <mxGeometry x="2730" y="-853" width="396" height="323" as="geometry" />
        </mxCell>
        <mxCell id="vz7TybBeLEqPIu0Ode82-157" value="" style="rounded=1;arcSize=10;whiteSpace=wrap;html=1;align=center;dashed=1;dashPattern=8 8;fillColor=#eeeeee;strokeColor=#36393d;" vertex="1" parent="1">
          <mxGeometry x="2711" y="-513" width="430" height="355" as="geometry" />
        </mxCell>
        <mxCell id="vz7TybBeLEqPIu0Ode82-158" value="资格家庭" style="text;html=1;strokeColor=#36393d;fillColor=#ffcc99;align=center;verticalAlign=middle;whiteSpace=wrap;rounded=0;fontSize=14;" vertex="1" parent="1">
          <mxGeometry x="2731" y="-503" width="70" height="20" as="geometry" />
        </mxCell>
        <mxCell id="vz7TybBeLEqPIu0Ode82-159" value="base_family_subsidy_member 成员关系表&lt;br&gt;base_family_member_sub 成员信息表&lt;br&gt;base_family_personinfo_sub 成员基本信息表&lt;br&gt;base_family_memberaddress_sub 成员地址信息表&lt;br&gt;base_family_earnings_proof_sub 成员三证信息表&lt;br&gt;base_family_housing_proof_sub 成员住房信息表&lt;br&gt;Base_Family_Membercars_sub 成员车辆信息表&lt;br&gt;base_family_member_propert_sub 成员资产信息表&lt;br&gt;base_family_special_person_sub 成员特殊证件信息表&lt;br&gt;base_family_subsidy_lowensure 资格低保信息表&lt;br&gt;base_family_subsidy_incomesum 家庭收入信息表&amp;nbsp;&lt;br&gt;base_family_subsidy_ls_option 家庭核定信息表&lt;br&gt;base_family_subsidy_familyhous 家庭房产信息表&lt;br&gt;&lt;div&gt;&lt;div&gt;base_family_member_company_sub 成员投资信息（精简材料家庭同步）&lt;/div&gt;&lt;div&gt;base_family_member_cars_sub 成员车辆信息（精简材料家庭同步）&lt;/div&gt;&lt;div&gt;base_family_illness_sub 成员大病信息（精简材料家庭同步）&lt;/div&gt;&lt;div&gt;base_family_disability_sub 成员残疾信息（精简材料家庭同步）&lt;/div&gt;&lt;div&gt;base_family_specialinfo_sub 成员特殊情况信息（精简材料家庭同步）&lt;/div&gt;&lt;div&gt;base_family_member_income_sub 成员收入信息（精简材料家庭同步）&lt;/div&gt;&lt;/div&gt;" style="rounded=1;arcSize=10;whiteSpace=wrap;html=1;align=center;sketch=1;curveFitting=1;jiggle=2;dashed=1;dashPattern=8 8;fillColor=#ffcccc;strokeColor=#36393d;" vertex="1" parent="1">
          <mxGeometry x="2728" y="-477" width="396" height="299" as="geometry" />
        </mxCell>
        <mxCell id="vz7TybBeLEqPIu0Ode82-161" value="quartz_write_state 回写记录表" style="rounded=1;arcSize=10;whiteSpace=wrap;html=1;align=center;sketch=1;curveFitting=1;jiggle=2;dashed=1;dashPattern=8 8;fillColor=#ffcccc;strokeColor=#36393d;" vertex="1" parent="1">
          <mxGeometry x="2400.25" y="-423" width="188.5" height="25.5" as="geometry" />
        </mxCell>
        <mxCell id="vz7TybBeLEqPIu0Ode82-163" value="资格申请数据流" style="rounded=1;whiteSpace=wrap;html=1;dashed=1;dashPattern=8 8;sketch=1;jiggle=2;curveFitting=1;fontFamily=Comic Sans MS;fontSize=31;labelBackgroundColor=none;labelBorderColor=none;fillColor=#eeeeee;strokeColor=#36393d;" vertex="1" parent="1">
          <mxGeometry x="-659" y="-1008" width="230" height="85" as="geometry" />
        </mxCell>
        <mxCell id="vz7TybBeLEqPIu0Ode82-170" value="" style="rounded=0;whiteSpace=wrap;html=1;dashed=1;dashPattern=8 8;strokeColor=#36393d;fontFamily=Helvetica;fontSize=12;fillColor=#cdeb8b;" vertex="1" parent="1">
          <mxGeometry x="1191" y="-508" width="1140" height="380" as="geometry" />
        </mxCell>
        <mxCell id="vz7TybBeLEqPIu0Ode82-171" value="" style="rounded=0;whiteSpace=wrap;html=1;dashed=1;dashPattern=8 8;sketch=1;jiggle=2;curveFitting=1;strokeColor=#36393d;fontFamily=Helvetica;fontSize=12;fontColor=default;fillColor=#ffcccc;" vertex="1" parent="1">
          <mxGeometry x="1198" y="-498" width="560" height="360" as="geometry" />
        </mxCell>
        <mxCell id="vz7TybBeLEqPIu0Ode82-172" value="" style="rounded=0;whiteSpace=wrap;html=1;dashed=1;dashPattern=8 8;sketch=1;jiggle=2;curveFitting=1;strokeColor=#36393d;fontFamily=Helvetica;fontSize=12;fontColor=default;fillColor=#ffcccc;" vertex="1" parent="1">
          <mxGeometry x="1761" y="-498" width="560" height="360" as="geometry" />
        </mxCell>
        <mxCell id="vz7TybBeLEqPIu0Ode82-145" value="审核过程备注" style="text;html=1;strokeColor=#82b366;fillColor=#d5e8d4;align=center;verticalAlign=middle;whiteSpace=wrap;rounded=0;fontSize=20;" vertex="1" parent="1">
          <mxGeometry x="1211" y="-488" width="144" height="30" as="geometry" />
        </mxCell>
        <mxCell id="vz7TybBeLEqPIu0Ode82-167" value="接口备注" style="text;html=1;strokeColor=#82b366;fillColor=#d5e8d4;align=center;verticalAlign=middle;whiteSpace=wrap;rounded=0;fontSize=20;" vertex="1" parent="1">
          <mxGeometry x="1774" y="-488" width="110" height="30" as="geometry" />
        </mxCell>
        <mxCell id="vz7TybBeLEqPIu0Ode82-168" value="1、公安接口（通过内部共享系统交互、以文件方式经过经信委交互）&lt;br style=&quot;font-size: 14px;&quot;&gt;2、地税接口（通过数据库方式交互、各自提供前置数据库）&lt;br style=&quot;font-size: 14px;&quot;&gt;3、婚姻民政接口（通过数据库方式交互、经过经信委交互）&lt;br style=&quot;font-size: 14px;&quot;&gt;4、公积金接口（通过数据库方式交互、经过经信委交互）&lt;br style=&quot;font-size: 14px;&quot;&gt;5、殡葬、社救接口（通过数据库方式交互、经过经信委交互）&lt;br style=&quot;font-size: 14px;&quot;&gt;6、核对报告接口（通过数据库方式交互、各自提供数据库、文件服务器）&lt;br style=&quot;font-size: 14px;&quot;&gt;7、房产接口（通过数据库方式交互）" style="text;html=1;strokeColor=none;fillColor=none;align=left;verticalAlign=top;whiteSpace=wrap;rounded=0;fontSize=14;fontFamily=Helvetica;fontColor=default;" vertex="1" parent="1">
          <mxGeometry x="1776" y="-458" width="535" height="310" as="geometry" />
        </mxCell>
        <mxCell id="vz7TybBeLEqPIu0Ode82-149" value="1、审核过程中可做退回操作，街道（区县）所属的环节内可逐级可跨环节（biz_family_backinfo）&#xa;2、审核过程中可删除操作，受理之前街道删除。受理之后区县删除（biz_family_deletelog）&#xa;3、全局日志表，记录操作记录信息（biz_family_itemslog）" style="text;html=1;strokeColor=none;fillColor=none;align=left;verticalAlign=top;whiteSpace=wrap;rounded=0;strokeWidth=1;fontSize=14;" vertex="1" parent="1">
          <mxGeometry x="1211" y="-458" width="540" height="310" as="geometry" />
        </mxCell>
        <mxCell id="vz7TybBeLEqPIu0Ode82-173" style="edgeStyle=orthogonalEdgeStyle;rounded=0;orthogonalLoop=1;jettySize=auto;html=1;entryX=0.5;entryY=0;entryDx=0;entryDy=0;fontFamily=Helvetica;fontSize=12;fontColor=default;" edge="1" parent="1" source="yCfuCtmDYK_FV-YPYzmW-44" target="vz7TybBeLEqPIu0Ode82-156">
          <mxGeometry relative="1" as="geometry">
            <Array as="points">
              <mxPoint x="-401" y="-970" />
              <mxPoint x="2928" y="-970" />
            </Array>
          </mxGeometry>
        </mxCell>
      </root>
    </mxGraphModel>
  </diagram>
</mxfile>
